<svg xmlns="http://www.w3.org/2000/svg" id="Group_4839" width="436.256" height="436.256" data-name="Group 4839" viewBox="0 0 436.256 436.256">
    <defs>
        <style>
            .cls-1{fill:none}.cls-2{fill:#102954}
        </style>
    </defs>
    <path id="Path_541" d="M0 0h436.256v436.256H0z" class="cls-1" data-name="Path 541"/>
    <g id="Group_932" data-name="Group 932" transform="translate(53.13 25.683)">
        <path id="Path_204" d="M329.895 129.638C341 102.879 341 48.349 326.36 6.443c-4.039-7.573-15.147-5.049-15.652 3.029V12.5c-2.524 39.887-17.167 61.6-38.877 72.2-3.534 1.515-9.088 1.515-12.622-1.01a166.207 166.207 0 0 0-177.725 0 12.437 12.437 0 0 1-11.108 1.01C48.16 76.624 33.013 52.389 30.488 12V8.967c-.5-8.078-12.118-10.6-15.652-3.029C.194 48.349.7 102.879 11.3 129.638c5.554 13.127 5.554 28.274 1.01 41.907a156.173 156.173 0 0 0-8.583 55.539c2.02 87.852 76.745 162.577 164.6 164.092 92.9 1.01 168.637-73.715 168.637-166.617a166.659 166.659 0 0 0-8.583-53.014 59.874 59.874 0 0 1 1.514-41.907zM168.326 351.289c-67.657-1.515-123.2-56.549-124.206-124.205-1.515-72.2 57.054-130.769 128.75-129.254 67.657 1.01 123.2 56.549 124.206 124.205 1.515 71.695-57.054 130.265-128.75 129.254z" class="cls-2" data-name="Path 204" transform="translate(-3.568 -1.402)"/>
        <path id="Path_205" d="M98.971 85.722L69.182 39.776c-4.544-7.576-14.642-9.593-22.216-5.049a16.57 16.57 0 0 0-7.573 13.632 17.021 17.021 0 0 0 2.524 8.583l20.2 31.3a6.852 6.852 0 0 1-.5 7.574L30.3 130.153a16.017 16.017 0 0 0 1.01 22.72 17.644 17.644 0 0 0 11.108 4.039 16.436 16.436 0 0 0 11.613-5.049L77.26 124.6c2.02-2.02 5.049-2.02 6.564.5l16.662 23.73a9.907 9.907 0 0 0 4.544 4.544 15.977 15.977 0 0 0 18.176.5 16.569 16.569 0 0 0 7.574-13.632 17.021 17.021 0 0 0-2.525-8.583z" class="cls-2" data-name="Path 205" transform="translate(87.498 123.803)"/>
    </g>
</svg>
